# xmcd
#
# Track frame offsets:
#	150
#	14817
#	24630
#	42345
#	62425
#	77035
#	99247
#	118350
#	136365
#	152657
#	171352
#	193767
#	213957
#
# Disc length: 3030 seconds
#
# Revision: 1
# Processed by: cddbd v1.5.2PL0 Copyright (c) Steve Scherf et al.
# Submitted via: audiograbber 1.83.01
#
DISCID=b30bd40d
DTITLE=Ruud Jansen band - 30 Years A battle of keys
DYEAR=1997
DGENRE=Pop
TTITLE0=Ruud Jansen Band - Battle of keys
TTITLE1=Ruud Jansen Band - Got it right
TTITLE2=Ruud Jansen Band - 30 Years
TTITLE3=Ruud Jansen Band - You've got me
TTITLE4=Ruud Jansen Band - Questions
TTITLE5=Ruud Jansen Band - Disgusting crime
TTITLE6=Ruud Jansen Band - There's a lie in the street
TTITLE7=Ruud Jansen Band - The meaning of love
TTITLE8=Ruud Jansen Band - Fly with me
TTITLE9=Ruud Jansen Band - Irene
TTITLE10=Ruud Jansen Band - New love
TTITLE11=Ruud Jansen Band - Three's a crowd
TTITLE12=Ruud Jansen Band - Louise
EXTD=
EXTT0=
EXTT1=
EXTT2=
EXTT3=
EXTT4=
EXTT5=
EXTT6=
EXTT7=
EXTT8=
EXTT9=
EXTT10=
EXTT11=
EXTT12=
PLAYORDER=
